<?xml version="1.0" encoding="UTF-8"?>
<!DOCTYPE svg PUBLIC "-//W3C//DTD SVG 1.1//EN" "http://www.w3.org/Graphics/SVG/1.1/DTD/svg11.dtd">
<!-- Creator: CorelDRAW 2019 (64-Bit) -->
<svg xmlns="http://www.w3.org/2000/svg" xml:space="preserve" width="15.9998mm" height="17.3724mm" version="1.1" style="shape-rendering:geometricPrecision; text-rendering:geometricPrecision; image-rendering:optimizeQuality; fill-rule:evenodd; clip-rule:evenodd"
viewBox="0 0 15.23 16.53"
 xmlns:xlink="http://www.w3.org/1999/xlink"
 xmlns:xodm="http://www.corel.com/coreldraw/odm/2003">
 <defs>
  <style type="text/css">
   <![CDATA[
    .fil1 {fill:#434242;fill-rule:nonzero}
    .fil0 {fill:#2B2A29;fill-rule:nonzero}
    .fil2 {fill:#F2F2F2;fill-rule:nonzero}
    .fil3 {fill:white;fill-rule:nonzero}
   ]]>
  </style>
 </defs>
 <g id="Слой_x0020_1">
  <metadata id="CorelCorpID_0Corel-Layer"/>
  <g id="_1589588903744">
   <path class="fil0" d="M6.14 15.91l0 0.45 0.05 0c0.04,0 0.06,0.01 0.08,0.02 0.01,0.01 0.02,0.03 0.02,0.05 0,0.02 -0.01,0.04 -0.02,0.05 -0.01,0.01 -0.04,0.02 -0.08,0.02l-0.19 0c-0.04,0 -0.06,-0.01 -0.08,-0.02 -0.01,-0.01 -0.02,-0.03 -0.02,-0.05 0,-0.02 0.01,-0.04 0.02,-0.05 0.01,-0.01 0.04,-0.02 0.08,-0.02l0 -0.58 -0.02 0c-0.04,0 -0.06,-0.01 -0.08,-0.02 -0.01,-0.01 -0.02,-0.03 -0.02,-0.05 0,-0.02 0.01,-0.04 0.02,-0.05 0.01,-0.01 0.04,-0.02 0.08,-0.02l0.16 0 0.37 0.6 0 -0.45 -0.05 0c-0.04,0 -0.06,-0.01 -0.08,-0.02 -0.01,-0.01 -0.02,-0.03 -0.02,-0.05 0,-0.02 0.01,-0.04 0.02,-0.05 0.01,-0.01 0.04,-0.02 0.08,-0.02l0.19 0c0.04,0 0.06,0.01 0.08,0.02 0.01,0.01 0.02,0.03 0.02,0.05 0,0.02 -0.01,0.04 -0.02,0.05 -0.01,0.01 -0.04,0.02 -0.08,0.02l0 0.73 -0.14 0 -0.37 -0.6z"/>
   <path id="1" class="fil0" d="M7.25 15.78l0 0.58 0.14 0c0.04,0 0.06,0.01 0.08,0.02 0.01,0.01 0.02,0.03 0.02,0.05 0,0.02 -0.01,0.04 -0.02,0.05 -0.01,0.01 -0.04,0.02 -0.08,0.02l-0.43 0c-0.04,0 -0.06,-0.01 -0.08,-0.02 -0.01,-0.01 -0.02,-0.03 -0.02,-0.05 0,-0.02 0.01,-0.04 0.02,-0.05 0.01,-0.01 0.04,-0.02 0.08,-0.02l0.14 0 0 -0.58 -0.14 0c-0.04,0 -0.06,-0.01 -0.08,-0.02 -0.01,-0.01 -0.02,-0.03 -0.02,-0.05 0,-0.02 0.01,-0.04 0.02,-0.05 0.01,-0.01 0.04,-0.02 0.08,-0.02l0.43 0c0.04,0 0.06,0.01 0.08,0.02 0.01,0.01 0.02,0.03 0.02,0.05 0,0.02 -0.01,0.04 -0.02,0.05 -0.01,0.01 -0.04,0.02 -0.08,0.02l-0.14 0z"/>
   <path id="2" class="fil0" d="M7.85 15.91l0 0.45 0.05 0c0.04,0 0.06,0.01 0.08,0.02 0.01,0.01 0.02,0.03 0.02,0.05 0,0.02 -0.01,0.04 -0.02,0.05 -0.01,0.01 -0.04,0.02 -0.08,0.02l-0.19 0c-0.04,0 -0.06,-0.01 -0.08,-0.02 -0.01,-0.01 -0.02,-0.03 -0.02,-0.05 0,-0.02 0.01,-0.04 0.02,-0.05 0.01,-0.01 0.04,-0.02 0.08,-0.02l0 -0.58 -0.02 0c-0.04,0 -0.06,-0.01 -0.08,-0.02 -0.01,-0.01 -0.02,-0.03 -0.02,-0.05 0,-0.02 0.01,-0.04 0.02,-0.05 0.01,-0.01 0.04,-0.02 0.08,-0.02l0.16 0 0.37 0.6 0 -0.45 -0.05 0c-0.04,0 -0.06,-0.01 -0.08,-0.02 -0.01,-0.01 -0.02,-0.03 -0.02,-0.05 0,-0.02 0.01,-0.04 0.02,-0.05 0.01,-0.01 0.04,-0.02 0.08,-0.02l0.19 0c0.04,0 0.06,0.01 0.08,0.02 0.01,0.01 0.02,0.03 0.02,0.05 0,0.02 -0.01,0.04 -0.02,0.05 -0.01,0.01 -0.04,0.02 -0.08,0.02l0 0.73 -0.14 0 -0.37 -0.6z"/>
   <path id="3" class="fil0" d="M9.16 15.78l0 0.45c0,0.06 -0.01,0.1 -0.03,0.14 -0.03,0.05 -0.07,0.09 -0.12,0.12 -0.05,0.03 -0.11,0.05 -0.17,0.05 -0.07,0 -0.18,-0.03 -0.31,-0.1l0 -0.25c0,-0.04 0.01,-0.06 0.02,-0.08 0.01,-0.02 0.03,-0.02 0.05,-0.02 0.02,0 0.04,0.01 0.05,0.02 0.01,0.02 0.02,0.04 0.02,0.08l0 0.15c0.07,0.03 0.12,0.05 0.17,0.05 0.02,0 0.05,-0.01 0.08,-0.02 0.03,-0.01 0.05,-0.03 0.06,-0.04 0.01,-0.02 0.02,-0.03 0.03,-0.05 0,-0.01 0,-0.03 0,-0.06l0 -0.43 -0.17 0c-0.04,0 -0.06,-0.01 -0.08,-0.02 -0.01,-0.01 -0.02,-0.03 -0.02,-0.05 0,-0.02 0.01,-0.04 0.02,-0.05 0.01,-0.01 0.04,-0.02 0.08,-0.02l0.4 0c0.04,0 0.06,0.01 0.08,0.02 0.01,0.01 0.02,0.03 0.02,0.05 0,0.02 -0.01,0.04 -0.02,0.05 -0.01,0.01 -0.04,0.02 -0.08,0.02l-0.08 0z"/>
   <path id="4" class="fil0" d="M9.92 16.27l-0.35 0 -0.04 0.09 0.03 0c0.04,0 0.06,0.01 0.08,0.02 0.01,0.01 0.02,0.03 0.02,0.05 0,0.02 -0.01,0.04 -0.02,0.05 -0.01,0.01 -0.04,0.02 -0.08,0.02l-0.19 0c-0.04,0 -0.06,-0.01 -0.08,-0.02 -0.01,-0.01 -0.02,-0.03 -0.02,-0.05 0,-0.02 0.01,-0.04 0.02,-0.05 0.01,-0.01 0.04,-0.02 0.08,-0.02l0.23 -0.58 -0.09 0c-0.04,0 -0.06,-0.01 -0.08,-0.02 -0.01,-0.01 -0.02,-0.03 -0.02,-0.05 0,-0.02 0.01,-0.04 0.02,-0.05 0.01,-0.01 0.04,-0.02 0.08,-0.02l0.31 0 0.28 0.73c0.04,0 0.06,0 0.07,0.01 0.02,0.02 0.03,0.04 0.03,0.06 0,0.02 -0.01,0.04 -0.02,0.05 -0.01,0.01 -0.04,0.02 -0.08,0.02l-0.19 0c-0.04,0 -0.06,-0.01 -0.08,-0.02 -0.01,-0.01 -0.02,-0.03 -0.02,-0.05 0,-0.02 0.01,-0.04 0.02,-0.05 0.01,-0.01 0.04,-0.02 0.08,-0.02l0.03 0 -0.04 -0.09zm-0.06 -0.15l-0.12 -0.3 -0.12 0.3 0.23 0z"/>
   <path class="fil0" d="M4.99 2.59l2.62 0.73c0.14,0.04 0.17,0.24 0.04,0.32l-2.33 1.45c-0.04,0.02 -0.07,0.06 -0.08,0.11l-0.7 2.73c-0.04,0.15 -0.23,0.18 -0.31,0.04l-1.39 -2.43c-0.02,-0.04 -0.06,-0.07 -0.1,-0.08l-2.62 -0.73c-0.14,-0.04 -0.17,-0.24 -0.04,-0.32l2.33 -1.45c0.04,-0.02 0.07,-0.06 0.08,-0.11l0.7 -2.73c0.04,-0.15 0.23,-0.18 0.31,-0.04l1.39 2.43c0.02,0.04 0.06,0.07 0.1,0.08z"/>
   <path class="fil1" d="M3.33 0l0.54 4.03 -1.38 -1.17 0.72 -2.78c0,0 0.06,-0.08 0.12,-0.07z"/>
   <path class="fil1" d="M0 4.59l3.87 -0.56 -1.12 1.44 -2.67 -0.75c0,0 -0.07,-0.06 -0.07,-0.13z"/>
   <path class="fil2" d="M4.41 8.05l-0.54 -4.03 1.38 1.17 -0.72 2.78c0,0 -0.06,0.08 -0.12,0.07z"/>
   <path class="fil1" d="M7.74 3.47l-3.87 0.56 1.12 -1.44 2.67 0.75c0,0 0.07,0.06 0.07,0.13z"/>
   <path class="fil0" d="M4.86 3.88c0.08,0.57 -0.31,1.1 -0.86,1.18 -0.55,0.08 -1.06,-0.32 -1.13,-0.89 -0.08,-0.57 0.31,-1.1 0.86,-1.18 0.55,-0.08 1.06,0.32 1.13,0.89z"/>
   <path class="fil0" d="M4.59 3.92c0.06,0.41 -0.22,0.8 -0.62,0.86 -0.4,0.06 -0.77,-0.23 -0.82,-0.65 -0.06,-0.41 0.22,-0.8 0.62,-0.86 0.4,-0.06 0.77,0.23 0.82,0.65z"/>
   <path class="fil1" d="M13.3 8.99l1.34 1.43c0.07,0.08 0.02,0.21 -0.09,0.21l-1.92 0.01c-0.03,0 -0.06,0.01 -0.08,0.04l-1.37 1.4c-0.08,0.08 -0.2,0.02 -0.2,-0.09l-0.01 -2c-0,-0.03 -0.01,-0.06 -0.03,-0.09l-1.34 -1.43c-0.07,-0.08 -0.02,-0.21 0.09,-0.21l1.92 -0.01c0.03,-0 0.06,-0.01 0.08,-0.04l1.37 -1.4c0.08,-0.08 0.2,-0.02 0.2,0.09l0.01 2c0,0.03 0.01,0.06 0.03,0.09z"/>
   <g>
    <path class="fil0" d="M13.18 6.79l-1.07 2.65 -0.44 -1.23 1.4 -1.43c0,0 0.06,-0.03 0.1,0z"/>
   </g>
   <g>
    <path class="fil2" d="M9.57 8.34l2.55 1.11 -1.18 0.45 -1.37 -1.46c0,0 -0.02,-0.06 0,-0.1z"/>
   </g>
   <g>
    <path class="fil0" d="M11.05 12.1l1.07 -2.65 0.44 1.23 -1.4 1.43c0,0 -0.06,0.03 -0.1,-0z"/>
   </g>
   <g>
    <path class="fil0" d="M14.67 10.56l-2.55 -1.11 1.18 -0.45 1.37 1.46c0,0 0.02,0.06 -0,0.1z"/>
   </g>
   <path class="fil0" d="M12.77 9.73c-0.15,0.38 -0.57,0.55 -0.93,0.4 -0.36,-0.16 -0.53,-0.59 -0.38,-0.97 0.15,-0.38 0.57,-0.55 0.93,-0.4 0.36,0.16 0.53,0.59 0.38,0.97z"/>
   <path class="fil0" d="M12.59 9.65c-0.11,0.27 -0.41,0.4 -0.68,0.29 -0.26,-0.11 -0.39,-0.43 -0.28,-0.7 0.11,-0.27 0.41,-0.4 0.68,-0.29 0.26,0.11 0.39,0.43 0.28,0.7z"/>
   <path class="fil3" d="M7.04 12.27c-2.59,0 -4.7,-2.2 -4.7,-4.9 0,-2.7 2.11,-4.9 4.7,-4.9l0.69 0c0.81,0 1.61,0.22 2.31,0.63 0.06,-0.34 0.19,-0.65 0.37,-0.95 0.2,-0.32 0.46,-0.58 0.76,-0.79 0,-0 0.01,-0 0.01,-0.01 0.27,-0.17 0.65,-0.38 1.23,-0.44 0.01,-0 0.03,-0 0.04,-0 0.19,0 0.36,0.13 0.41,0.31 0.18,0.57 0.15,1.02 0.11,1.35 -0,0 -0,0.01 -0,0.01 -0.03,0.21 -0.09,0.41 -0.17,0.6 0.21,0.05 0.41,0.13 0.6,0.24 0,0 0.01,0 0.01,0 0.29,0.17 0.64,0.41 0.96,0.91 0.12,0.18 0.1,0.41 -0.04,0.57 -0.39,0.44 -0.77,0.63 -1.08,0.75 -0,0 -0.01,0 -0.01,0 -0.28,0.1 -0.57,0.16 -0.86,0.16 -0.06,0 -0.13,-0 -0.19,-0.01 0.16,0.5 0.24,1.02 0.24,1.55 0,2.7 -2.11,4.9 -4.7,4.9l-0.69 0z"/>
   <path class="fil0" d="M7.73 11.82l-0.69 0c-2.36,0 -4.27,-1.99 -4.27,-4.44 0,-2.45 1.91,-4.44 4.27,-4.44l0.69 0c2.36,0 4.27,1.99 4.27,4.44 0,2.45 -1.91,4.44 -4.27,4.44z"/>
   <g>
    <path class="fil3" d="M8.04 8.45l2.47 0c0.45,0 0.76,-0.55 0.62,-1.08l-0.39 -1.4c-0.09,-0.33 -0.34,-0.55 -0.62,-0.55l-2.08 0 -1.3 0 -2.08 0c-0.28,0 -0.53,0.22 -0.62,0.55l-0.39 1.4c-0.15,0.53 0.17,1.08 0.62,1.08l2.47 0 1.3 0z"/>
   </g>
   <path class="fil0" d="M10.54 4.42c-0.14,-0.46 -0.13,-0.81 -0.09,-1.14 0.05,-0.33 0.16,-0.61 0.32,-0.86 0.16,-0.25 0.36,-0.47 0.63,-0.65 0.27,-0.18 0.58,-0.33 1.04,-0.37 0.14,0.46 0.13,0.82 0.09,1.15 -0.05,0.33 -0.17,0.61 -0.32,0.86 -0.16,0.25 -0.37,0.47 -0.63,0.65 -0.27,0.17 -0.58,0.33 -1.04,0.37z"/>
   <path class="fil0" d="M10.55 4.35c0.32,-0.35 0.62,-0.51 0.92,-0.63 0.3,-0.11 0.59,-0.15 0.88,-0.13 0.29,0.02 0.58,0.1 0.86,0.26 0.28,0.16 0.56,0.37 0.82,0.77 -0.32,0.35 -0.62,0.52 -0.92,0.64 -0.3,0.11 -0.59,0.15 -0.88,0.12 -0.29,-0.02 -0.58,-0.1 -0.86,-0.26 -0.28,-0.16 -0.56,-0.37 -0.82,-0.77z"/>
   <g>
    <path class="fil0" d="M5.95 6.84c-0.03,0.31 -0.28,0.55 -0.59,0.55 -0.33,0 -0.59,-0.27 -0.59,-0.61 0,-0.17 0.06,-0.32 0.17,-0.43l1.01 0.49z"/>
   </g>
   <g>
    <path class="fil0" d="M8.72 6.84c0.03,0.31 0.28,0.55 0.59,0.55 0.33,0 0.59,-0.27 0.59,-0.61 0,-0.17 -0.06,-0.32 -0.17,-0.43l-1.01 0.49z"/>
   </g>
   <path class="fil0" d="M5.28 8.48c0,0 1.16,-0.77 2.11,-0.79 0.94,-0.03 2.11,0.79 2.11,0.79l-4.21 0z"/>
   <path class="fil0" d="M2.59 12.97l0 1.61 0.26 0c0.1,0 0.17,0.02 0.21,0.06 0.04,0.04 0.06,0.09 0.06,0.15 0,0.06 -0.02,0.11 -0.06,0.15 -0.04,0.04 -0.11,0.06 -0.21,0.06l-0.92 0c-0.1,0 -0.17,-0.02 -0.21,-0.06 -0.04,-0.04 -0.06,-0.09 -0.06,-0.15 0,-0.06 0.02,-0.11 0.06,-0.15 0.04,-0.04 0.11,-0.06 0.21,-0.06l0.26 0 0 -1.61 -0.43 0 0 0.39c0,0.1 -0.02,0.17 -0.05,0.22 -0.04,0.04 -0.08,0.06 -0.14,0.06 -0.06,0 -0.11,-0.02 -0.14,-0.06 -0.04,-0.04 -0.05,-0.11 -0.05,-0.22l0 -0.8 2.05 0 0 0.8c0,0.1 -0.02,0.17 -0.05,0.22 -0.04,0.04 -0.08,0.06 -0.14,0.06 -0.06,0 -0.11,-0.02 -0.14,-0.06 -0.04,-0.04 -0.05,-0.11 -0.05,-0.22l0 -0.39 -0.43 0z"/>
   <path id="1" class="fil0" d="M5.67 12.97l0 1.17c0,0.25 -0.09,0.47 -0.26,0.65 -0.17,0.18 -0.39,0.27 -0.63,0.27 -0.12,0 -0.24,-0.02 -0.34,-0.07 -0.11,-0.05 -0.2,-0.11 -0.29,-0.2 -0.09,-0.09 -0.15,-0.18 -0.2,-0.27 -0.05,-0.09 -0.07,-0.22 -0.07,-0.38l0 -1.17c-0.1,0 -0.17,-0.02 -0.21,-0.06 -0.04,-0.04 -0.06,-0.09 -0.06,-0.15 0,-0.06 0.02,-0.11 0.06,-0.15 0.04,-0.04 0.11,-0.06 0.21,-0.06l0.54 0c0.08,0 0.15,0.02 0.19,0.06 0.04,0.04 0.06,0.09 0.06,0.15 0,0.06 -0.02,0.11 -0.06,0.15 -0.04,0.04 -0.1,0.06 -0.19,0.06l-0.14 0 0 1.2c0,0.12 0.05,0.23 0.15,0.33 0.1,0.09 0.22,0.14 0.36,0.14 0.09,0 0.18,-0.02 0.26,-0.07 0.08,-0.05 0.15,-0.11 0.2,-0.2 0.03,-0.06 0.05,-0.12 0.05,-0.2l0 -1.2 -0.14 0c-0.08,0 -0.15,-0.02 -0.19,-0.06 -0.04,-0.04 -0.06,-0.09 -0.06,-0.15 0,-0.06 0.02,-0.11 0.06,-0.15 0.04,-0.04 0.1,-0.06 0.19,-0.06l0.54 0c0.1,0 0.17,0.02 0.21,0.06 0.04,0.04 0.06,0.09 0.06,0.15 0,0.06 -0.02,0.11 -0.06,0.15 -0.04,0.04 -0.11,0.06 -0.21,0.06z"/>
   <path id="2" class="fil0" d="M6.73 14.06l0 0.52 0.14 0c0.1,0 0.17,0.02 0.21,0.06 0.04,0.04 0.06,0.09 0.06,0.15 0,0.06 -0.02,0.11 -0.06,0.15 -0.04,0.04 -0.11,0.06 -0.21,0.06l-0.6 0c-0.1,0 -0.17,-0.02 -0.21,-0.06 -0.04,-0.04 -0.06,-0.09 -0.06,-0.15 0,-0.06 0.02,-0.11 0.06,-0.15 0.04,-0.04 0.11,-0.06 0.21,-0.06l0.06 0 0 -1.61 -0.06 0c-0.1,0 -0.17,-0.02 -0.21,-0.06 -0.04,-0.04 -0.06,-0.09 -0.06,-0.15 0,-0.06 0.02,-0.11 0.06,-0.15 0.04,-0.04 0.11,-0.06 0.21,-0.06l0.89 0c0.28,0 0.49,0.07 0.65,0.22 0.15,0.14 0.23,0.32 0.23,0.52 0,0.13 -0.04,0.24 -0.11,0.35 -0.07,0.1 -0.18,0.2 -0.33,0.28 0.08,0.08 0.17,0.17 0.27,0.29 0.06,0.08 0.14,0.2 0.24,0.36 0.1,0 0.16,0.01 0.19,0.04 0.05,0.05 0.08,0.11 0.08,0.17 0,0.06 -0.02,0.11 -0.06,0.15 -0.04,0.04 -0.11,0.06 -0.21,0.06l-0.2 0c-0.32,-0.51 -0.58,-0.82 -0.79,-0.93l-0.39 0zm0 -0.41l0.31 0c0.11,0 0.22,-0.02 0.31,-0.05 0.12,-0.05 0.2,-0.1 0.24,-0.15 0.04,-0.05 0.06,-0.11 0.06,-0.16 0,-0.08 -0.04,-0.15 -0.12,-0.22 -0.08,-0.07 -0.2,-0.1 -0.35,-0.1l-0.45 0 0 0.68z"/>
   <path id="3" class="fil0" d="M9.69 12.97l0 1.61 0.26 0c0.1,0 0.17,0.02 0.21,0.06 0.04,0.04 0.06,0.09 0.06,0.15 0,0.06 -0.02,0.11 -0.06,0.15 -0.04,0.04 -0.11,0.06 -0.21,0.06l-0.92 0c-0.1,0 -0.17,-0.02 -0.21,-0.06 -0.04,-0.04 -0.06,-0.09 -0.06,-0.15 0,-0.06 0.02,-0.11 0.06,-0.15 0.04,-0.04 0.11,-0.06 0.21,-0.06l0.26 0 0 -1.61 -0.43 0 0 0.39c0,0.1 -0.02,0.17 -0.05,0.22 -0.04,0.04 -0.08,0.06 -0.14,0.06 -0.06,0 -0.11,-0.02 -0.14,-0.06 -0.04,-0.04 -0.05,-0.11 -0.05,-0.22l0 -0.8 2.05 0 0 0.8c0,0.1 -0.02,0.17 -0.05,0.22 -0.04,0.04 -0.08,0.06 -0.14,0.06 -0.06,0 -0.11,-0.02 -0.14,-0.06 -0.04,-0.04 -0.05,-0.11 -0.05,-0.22l0 -0.39 -0.43 0z"/>
   <path id="4" class="fil0" d="M11.7 12.97l0 1.61 0.85 0 0 -0.39c0,-0.1 0.02,-0.17 0.06,-0.22 0.04,-0.04 0.08,-0.06 0.14,-0.06 0.06,0 0.11,0.02 0.14,0.06 0.04,0.04 0.05,0.11 0.05,0.22l0 0.8 -1.87 0c-0.1,0 -0.17,-0.02 -0.21,-0.06 -0.04,-0.04 -0.06,-0.09 -0.06,-0.15 0,-0.06 0.02,-0.11 0.06,-0.15 0.04,-0.04 0.11,-0.06 0.21,-0.06l0.23 0 0 -1.61 -0.23 0c-0.1,0 -0.17,-0.02 -0.21,-0.06 -0.04,-0.04 -0.06,-0.09 -0.06,-0.15 0,-0.06 0.02,-0.11 0.06,-0.15 0.04,-0.04 0.11,-0.06 0.21,-0.06l0.86 0c0.1,0 0.17,0.02 0.21,0.06 0.04,0.04 0.06,0.09 0.06,0.15 0,0.06 -0.02,0.11 -0.06,0.15 -0.04,0.04 -0.11,0.06 -0.21,0.06l-0.23 0z"/>
   <path id="5" class="fil0" d="M13.83 13.98l0 0.6 1.01 0 0 -0.22c0,-0.1 0.02,-0.17 0.06,-0.22 0.04,-0.04 0.08,-0.06 0.14,-0.06 0.06,0 0.11,0.02 0.14,0.06 0.04,0.04 0.05,0.11 0.05,0.22l0 0.63 -1.86 0c-0.1,0 -0.17,-0.02 -0.21,-0.06 -0.04,-0.04 -0.06,-0.09 -0.06,-0.15 0,-0.06 0.02,-0.11 0.06,-0.15 0.04,-0.04 0.11,-0.06 0.21,-0.06l0.06 0 0 -1.61 -0.06 0c-0.1,0 -0.17,-0.02 -0.21,-0.06 -0.04,-0.04 -0.06,-0.09 -0.06,-0.15 0,-0.06 0.02,-0.11 0.06,-0.15 0.04,-0.04 0.11,-0.06 0.21,-0.06l1.77 0 0 0.62c0,0.1 -0.02,0.17 -0.05,0.22 -0.04,0.04 -0.08,0.06 -0.14,0.06 -0.06,0 -0.11,-0.02 -0.14,-0.06 -0.04,-0.04 -0.06,-0.11 -0.06,-0.22l0 -0.21 -0.92 0 0 0.6 0.35 0c0,-0.1 0.01,-0.17 0.04,-0.19 0.05,-0.06 0.1,-0.09 0.16,-0.09 0.06,0 0.11,0.02 0.14,0.06 0.04,0.04 0.05,0.11 0.05,0.22l0 0.41c0,0.1 -0.01,0.17 -0.04,0.19 -0.05,0.06 -0.1,0.08 -0.16,0.08 -0.06,0 -0.11,-0.03 -0.16,-0.09 -0.02,-0.03 -0.04,-0.09 -0.04,-0.19l-0.35 0z"/>
  </g>
 </g>
</svg>
